<svg width="512" height="512" viewBox="0 0 512 512" fill="none" xmlns="http://www.w3.org/2000/svg">
  <defs>
    <linearGradient id="bg" x1="72" y1="48" x2="424" y2="462" gradientUnits="userSpaceOnUse">
      <stop stop-color="#151A23"/>
      <stop offset="0.55" stop-color="#0B1018"/>
      <stop offset="1" stop-color="#070A0F"/>
    </linearGradient>
    <linearGradient id="sun" x1="196" y1="118" x2="316" y2="279" gradientUnits="userSpaceOnUse">
      <stop stop-color="#F4D98C"/>
      <stop offset="0.58" stop-color="#C89D45"/>
      <stop offset="1" stop-color="#8A6423"/>
    </linearGradient>
    <linearGradient id="signal" x1="134" y1="282" x2="382" y2="192" gradientUnits="userSpaceOnUse">
      <stop stop-color="#2DD4BF"/>
      <stop offset="1" stop-color="#8AF4E6"/>
    </linearGradient>
    <filter id="shadow" x="66" y="68" width="380" height="368" filterUnits="userSpaceOnUse" color-interpolation-filters="sRGB">
      <feDropShadow dx="0" dy="18" stdDeviation="18" flood-color="#000000" flood-opacity="0.36"/>
      <feDropShadow dx="0" dy="0" stdDeviation="9" flood-color="#C89D45" flood-opacity="0.14"/>
    </filter>
  </defs>
  <rect width="512" height="512" rx="112" fill="#070A0F"/>
  <rect x="36" y="36" width="440" height="440" rx="88" fill="url(#bg)" stroke="#D8B867" stroke-opacity="0.26" stroke-width="2"/>
  <rect x="58" y="58" width="396" height="396" rx="68" stroke="#334052" stroke-opacity="0.46" stroke-width="1"/>

  <g filter="url(#shadow)">
    <circle cx="256" cy="218" r="83" fill="url(#sun)"/>
    <path d="M133 260H379" stroke="#0A0F17" stroke-width="74" stroke-linecap="round"/>
    <path d="M136 260H376" stroke="#8796A8" stroke-width="7" stroke-linecap="round"/>
    <path d="M161 314H351" stroke="#5E6C7E" stroke-width="6" stroke-linecap="round" opacity="0.72"/>
    <path d="M194 362H318" stroke="#485365" stroke-width="5" stroke-linecap="round" opacity="0.62"/>
    <path d="M134 289C166 278 188 294 213 270C241 242 266 256 292 230C317 205 341 207 378 190" stroke="url(#signal)" stroke-width="13" stroke-linecap="round" stroke-linejoin="round"/>
    <circle cx="378" cy="190" r="13" fill="#69EADC" stroke="#081018" stroke-width="5"/>
  </g>

  <g stroke="#E6C86F" stroke-width="7" stroke-linecap="round" opacity="0.88">
    <path d="M256 86V116"/>
    <path d="M178 119L196 145"/>
    <path d="M334 119L316 145"/>
    <path d="M132 194L164 201"/>
    <path d="M380 201L412 194"/>
  </g>
  <path d="M144 404H368" stroke="#D8B867" stroke-opacity="0.25" stroke-width="2" stroke-linecap="round"/>
</svg>
