<svg width="512" height="512" viewBox="0 0 512 512" fill="none" xmlns="http://www.w3.org/2000/svg">
  <defs>
    <linearGradient id="bg" x1="72" y1="56" x2="430" y2="456" gradientUnits="userSpaceOnUse">
      <stop offset="0" stop-color="#161B26"/>
      <stop offset="0.55" stop-color="#0B1018"/>
      <stop offset="1" stop-color="#10151F"/>
    </linearGradient>
    <linearGradient id="gold" x1="176" y1="116" x2="342" y2="372" gradientUnits="userSpaceOnUse">
      <stop offset="0" stop-color="#F2D487"/>
      <stop offset="0.5" stop-color="#C89B3C"/>
      <stop offset="1" stop-color="#785B24"/>
    </linearGradient>
    <linearGradient id="ivory" x1="220" y1="150" x2="306" y2="350" gradientUnits="userSpaceOnUse">
      <stop offset="0" stop-color="#FFF8E6"/>
      <stop offset="1" stop-color="#D8D1C1"/>
    </linearGradient>
    <radialGradient id="coreGlow" cx="0" cy="0" r="1" gradientUnits="userSpaceOnUse" gradientTransform="translate(256 248) rotate(90) scale(154)">
      <stop offset="0" stop-color="#D8B45D" stop-opacity="0.32"/>
      <stop offset="0.62" stop-color="#2DD4BF" stop-opacity="0.08"/>
      <stop offset="1" stop-color="#0B1018" stop-opacity="0"/>
    </radialGradient>
    <filter id="softGlow" x="64" y="58" width="384" height="396" filterUnits="userSpaceOnUse" color-interpolation-filters="sRGB">
      <feFlood flood-opacity="0" result="BackgroundImageFix"/>
      <feGaussianBlur in="SourceAlpha" stdDeviation="8" result="blur"/>
      <feOffset dy="4"/>
      <feComposite in2="SourceAlpha" operator="out"/>
      <feColorMatrix type="matrix" values="0 0 0 0 0.93 0 0 0 0 0.75 0 0 0 0 0.35 0 0 0 0.36 0"/>
      <feBlend mode="normal" in2="BackgroundImageFix" result="drop"/>
      <feBlend mode="normal" in="SourceGraphic" in2="drop" result="shape"/>
    </filter>
  </defs>

  <rect width="512" height="512" rx="104" fill="#080C13"/>
  <rect x="25" y="25" width="462" height="462" rx="92" fill="url(#bg)" stroke="#D4B35F" stroke-opacity="0.38" stroke-width="2"/>
  <rect x="42" y="42" width="428" height="428" rx="76" stroke="#48556A" stroke-opacity="0.32" stroke-width="1"/>

  <circle cx="256" cy="248" r="166" fill="url(#coreGlow)"/>
  <circle cx="256" cy="248" r="154" stroke="#243044" stroke-width="2"/>
  <circle cx="256" cy="248" r="126" stroke="url(#gold)" stroke-width="12" stroke-linecap="round" stroke-dasharray="62 21"/>
  <circle cx="256" cy="248" r="103" stroke="#D6B35C" stroke-opacity="0.22" stroke-width="2"/>

  <g stroke="#E7C96E" stroke-width="8" stroke-linecap="round" opacity="0.9">
    <line x1="256" y1="74" x2="256" y2="101"/>
    <line x1="256" y1="74" x2="256" y2="101" transform="rotate(30 256 248)"/>
    <line x1="256" y1="74" x2="256" y2="101" transform="rotate(60 256 248)"/>
    <line x1="256" y1="74" x2="256" y2="101" transform="rotate(90 256 248)"/>
    <line x1="256" y1="74" x2="256" y2="101" transform="rotate(120 256 248)"/>
    <line x1="256" y1="74" x2="256" y2="101" transform="rotate(150 256 248)"/>
    <line x1="256" y1="74" x2="256" y2="101" transform="rotate(180 256 248)"/>
    <line x1="256" y1="74" x2="256" y2="101" transform="rotate(210 256 248)"/>
    <line x1="256" y1="74" x2="256" y2="101" transform="rotate(240 256 248)"/>
    <line x1="256" y1="74" x2="256" y2="101" transform="rotate(270 256 248)"/>
    <line x1="256" y1="74" x2="256" y2="101" transform="rotate(300 256 248)"/>
    <line x1="256" y1="74" x2="256" y2="101" transform="rotate(330 256 248)"/>
  </g>

  <g opacity="0.92">
    <line x1="169" y1="316" x2="169" y2="262" stroke="#8EA1B6" stroke-width="6" stroke-linecap="round"/>
    <rect x="156" y="279" width="26" height="54" rx="5" fill="#2DD4BF"/>
    <line x1="215" y1="330" x2="215" y2="246" stroke="#8EA1B6" stroke-width="6" stroke-linecap="round"/>
    <rect x="202" y="268" width="26" height="44" rx="5" fill="#E85D4F"/>
    <line x1="343" y1="318" x2="343" y2="252" stroke="#8EA1B6" stroke-width="6" stroke-linecap="round"/>
    <rect x="330" y="261" width="26" height="64" rx="5" fill="#D6B35C"/>
    <path d="M148 332C177 310 196 322 223 292C249 262 277 278 302 244C322 218 343 213 366 196" stroke="#E7C96E" stroke-width="7" stroke-linecap="round" stroke-linejoin="round"/>
    <circle cx="366" cy="196" r="7" fill="#2DD4BF"/>
  </g>

  <g filter="url(#softGlow)">
    <path d="M196 352L256 146L316 352" stroke="#121620" stroke-width="36" stroke-linecap="round" stroke-linejoin="round"/>
    <path d="M196 352L256 146L316 352" stroke="url(#ivory)" stroke-width="24" stroke-linecap="round" stroke-linejoin="round"/>
    <path d="M224 288H288" stroke="#111722" stroke-width="26" stroke-linecap="round"/>
    <path d="M226 288H286" stroke="url(#gold)" stroke-width="14" stroke-linecap="round"/>
    <path d="M256 160L256 339" stroke="#2DD4BF" stroke-width="5" stroke-linecap="round" opacity="0.62"/>
  </g>

  <path d="M142 389H370" stroke="#7D8CA1" stroke-width="5" stroke-linecap="round" opacity="0.66"/>
  <path d="M176 416H336" stroke="#5B6778" stroke-width="4" stroke-linecap="round" opacity="0.5"/>
  <circle cx="378" cy="362" r="13" fill="#E85D4F" stroke="#F0B4AA" stroke-opacity="0.7" stroke-width="2"/>
</svg>
